<svg width="697" height="738" viewBox="0 0 697 738" fill="none" xmlns="http://www.w3.org/2000/svg">
<g filter="url(#filter0_d_779_5388)">
<rect x="551" y="557" width="121" height="121" rx="20" fill="#0075FF"/>
</g>
<path d="M639.391 628.195H636.709V601.902C636.709 600.337 636.087 598.836 634.981 597.729C633.875 596.622 632.374 596 630.809 596H592.191C590.626 596 589.125 596.622 588.019 597.729C586.913 598.836 586.291 600.337 586.291 601.902V628.195H583.609C583.182 628.195 582.773 628.365 582.471 628.667C582.17 628.968 582 629.378 582 629.805V634.098C582 635.663 582.622 637.164 583.728 638.271C584.835 639.378 586.335 640 587.9 640H635.1C636.665 640 638.165 639.378 639.272 638.271C640.378 637.164 641 635.663 641 634.098V629.805C641 629.378 640.83 628.968 640.529 628.667C640.227 628.365 639.818 628.195 639.391 628.195ZM589.509 601.902C589.509 601.191 589.792 600.508 590.295 600.005C590.798 599.502 591.48 599.22 592.191 599.22H630.809C631.52 599.22 632.202 599.502 632.705 600.005C633.208 600.508 633.491 601.191 633.491 601.902V628.195H589.509V601.902ZM637.782 634.098C637.782 634.809 637.499 635.492 636.996 635.995C636.493 636.498 635.811 636.78 635.1 636.78H587.9C587.189 636.78 586.507 636.498 586.004 635.995C585.501 635.492 585.218 634.809 585.218 634.098V631.415H637.782V634.098ZM617.4 606.195C617.4 606.622 617.23 607.032 616.929 607.333C616.627 607.635 616.218 607.805 615.791 607.805H607.209C606.782 607.805 606.373 607.635 606.071 607.333C605.77 607.032 605.6 606.622 605.6 606.195C605.6 605.768 605.77 605.359 606.071 605.057C606.373 604.755 606.782 604.585 607.209 604.585H615.791C616.218 604.585 616.627 604.755 616.929 605.057C617.23 605.359 617.4 605.768 617.4 606.195Z" fill="white"/>
<circle cx="344.5" cy="344.5" r="344.5" fill="#F3F2F2"/>
<path d="M172 171C172 200.271 148.047 224 118.5 224C88.9528 224 65 200.271 65 171C65 141.729 88.9528 118 118.5 118C148.047 118 172 141.729 172 171Z" fill="#004EFF"/>
<ellipse cx="323.5" cy="379" rx="268.5" ry="269" fill="#DBE7F5"/>
<path d="M99.7344 150.938C99.0755 150.938 98.4436 151.199 97.9777 151.665C97.5117 152.131 97.25 152.763 97.25 153.422V158.391C97.25 159.762 98.363 160.875 99.7344 160.875H117.953C118.612 160.875 119.244 160.613 119.71 160.147C120.176 159.681 120.438 159.05 120.438 158.391V153.422C120.438 152.763 120.176 152.131 119.71 151.665C119.244 151.199 118.612 150.938 117.953 150.938H99.7344ZM100.562 157.562V154.25H117.125V157.562H100.562ZM90.625 150.109C90.625 146.909 93.222 144.312 96.4219 144.312H121.266C124.466 144.312 127.062 146.909 127.062 150.109V184.891C127.062 186.428 126.452 187.903 125.365 188.99C124.278 190.077 122.803 190.688 121.266 190.688H96.4219C94.8844 190.688 93.41 190.077 92.3229 188.99C91.2357 187.903 90.625 186.428 90.625 184.891V150.109ZM96.4219 147.625C95.763 147.625 95.1311 147.887 94.6652 148.353C94.1992 148.819 93.9375 149.45 93.9375 150.109V184.891C93.9375 186.262 95.0505 187.375 96.4219 187.375H121.266C121.925 187.375 122.556 187.113 123.022 186.647C123.488 186.181 123.75 185.55 123.75 184.891V150.109C123.75 149.45 123.488 148.819 123.022 148.353C122.556 147.887 121.925 147.625 121.266 147.625H96.4219ZM132.445 154.25H130.375V160.875H132.445C132.775 160.875 133.091 160.744 133.324 160.511C133.557 160.278 133.688 159.962 133.688 159.633V155.492C133.688 155.163 133.557 154.847 133.324 154.614C133.091 154.381 132.775 154.25 132.445 154.25ZM130.375 164.188H132.445C133.131 164.188 133.688 164.744 133.688 165.43V169.57C133.688 169.9 133.557 170.216 133.324 170.449C133.091 170.682 132.775 170.812 132.445 170.812H130.375V164.188ZM132.445 174.125H130.375V180.75H132.445C132.775 180.75 133.091 180.619 133.324 180.386C133.557 180.153 133.688 179.837 133.688 179.508V175.367C133.688 175.038 133.557 174.722 133.324 174.489C133.091 174.256 132.775 174.125 132.445 174.125Z" fill="white"/>
<defs>
<filter id="filter0_d_779_5388" x="511" y="537" width="201" height="201" filterUnits="userSpaceOnUse" color-interpolation-filters="sRGB">
<feFlood flood-opacity="0" result="BackgroundImageFix"/>
<feColorMatrix in="SourceAlpha" type="matrix" values="0 0 0 0 0 0 0 0 0 0 0 0 0 0 0 0 0 0 127 0" result="hardAlpha"/>
<feOffset dy="20"/>
<feGaussianBlur stdDeviation="20"/>
<feColorMatrix type="matrix" values="0 0 0 0 0 0 0 0 0 0 0 0 0 0 0 0 0 0 0.25 0"/>
<feBlend mode="normal" in2="BackgroundImageFix" result="effect1_dropShadow_779_5388"/>
<feBlend mode="normal" in="SourceGraphic" in2="effect1_dropShadow_779_5388" result="shape"/>
</filter>
</defs>
</svg>
